<?xml version="1.0" encoding="utf-8"?>
<!-- Generator: Adobe Illustrator 23.0.1, SVG Export Plug-In . SVG Version: 6.00 Build 0)  -->
<svg version="1.1" id="Layer_1" xmlns="http://www.w3.org/2000/svg" xmlns:xlink="http://www.w3.org/1999/xlink" x="0px" y="0px"
	 viewBox="0 0 126.9 465.7" style="enable-background:new 0 0 126.9 465.7;" xml:space="preserve">
<style type="text/css">
	.st0{fill:#FFFFFF;}
	.st1{fill:#F40009;}
</style>
<g>
	<path class="st0" d="M63.4,465.7c22.7,0,47.4-3.6,54.8-7.8c12.4-7,8.8-34.5,5.3-45.3c-2.4-7.6-7.8-20.6-7.8-47.5
		c0-28.9,9.5-84.9,9.9-88.3c0.7-5.8,2.1-11.6-1-12.9c3.9-2.9,0.8-74.2-6-76.9c3.4,0,2.2-8,1.5-13.5c-1.3-10.1-10.2-33.9-17.9-59.7
		C99,102.3,93.6,84.9,91.8,72c-1.6-12-1.3-27.2-1.3-33.8c2.3-2.3,3.2-3.3,3.1-6.9c-0.1-3.7-4.9-12.8-4.9-14.1c0-1.3,0-2.9,1.7-4.4
		c1.9-1.7,1.8-4.6,1-7.1c-1-2.9-4.6-3.8-6.7-4.3C82.9,1,73.3,0,63.4,0C53.6,0,44,1,42.1,1.4c-2.1,0.5-5.7,1.4-6.7,4.3
		c-0.8,2.4-0.9,5.4,1,7.1c1.7,1.5,1.7,3.1,1.7,4.4s-4.8,10.4-4.9,14.1c-0.1,3.6,0.8,4.6,3.1,6.9c0,6.6,0.3,21.9-1.3,33.8
		c-1.8,12.9-7.1,30.3-10.5,41.8C16.9,139.6,8,163.4,6.7,173.5C5.9,179,4.7,187,8.1,187c-6.8,2.7-9.9,74.1-6,76.9
		c-3.2,1.3-1.7,7.1-1,12.9c0.4,3.5,9.9,59.4,9.9,88.3c0,26.9-5.3,39.9-7.8,47.5c-3.4,10.8-7.1,38.3,5.3,45.3
		C16.1,462.1,40.8,465.7,63.4,465.7"/>
	<polygon class="st1" points="69.2,206.4 63.5,206.4 60.6,212.3 66.3,212.3 	"/>
	<path class="st1" d="M59,206.4h-6.2c-0.2,0.4-0.4,1-0.6,1.3c-6.3-7.8-14.9,8.8-17.7,13.8c-2.8,5-8.3,15.6-11.3,13.4
		c-2.8-2-0.1-10.8,1.7-15c1.6-3.7,6-10.8,8.2-9.6c0.8,0.5,0.7,1.7,0.4,2.4c-3,0.3-4.3,5.2-2.8,6.4c1.7,1.3,3.5-2.2,4.4-5.9
		c0.5-2.4,0.1-4.6-1.5-5.4c-4.6-2.2-9.2,5.7-10.1,7.3c-0.9,1.5-2.8,5.5-5.2,6.2c1-4.1,2.2-10-0.7-10.9c-3.5-1.1-6.5,7.5-7.6,11.2
		c-2.9,9.8-1.7,16.8,0.2,17.2c2.3,0.5,6-9.7,7.6-15.4c0.6-0.1,1.3-0.5,1.8-0.9c-1.8,5.5-1.9,8.9-1.9,10.8c0,3.5,1.8,6,2.9,6.2
		c4.4,1.1,7.6-4.4,10.2-7.9c-0.9,5.1-0.1,7.7,1.9,8.3c3.2,0.9,5.9-2.5,7.7-4.9c-0.1,1.9,0.3,4.3,1.7,4.9c1.6,0.7,3.8-0.4,4.9-1.3
		c3.5-2.7,8.3-9.2,11.8-15.6h-2.2c-4.6,8.1-8.1,10.7-9,10.3c-0.3-0.1-0.6-0.8-0.2-2C47.5,230.5,59,206.4,59,206.4 M11.8,233.7
		c-0.5,0-1.4-3.6,1.6-13.3c0.6,1.5,1.6,2.5,2.9,2.9C15,228.5,12.9,233.7,11.8,233.7 M16.9,221.4c-1.3-0.1-2.3-1.2-2.4-2
		c-0.4-3.6,1.9-6.5,2.7-6.2C18.6,213.5,17.6,218.4,16.9,221.4 M42.4,228.2c-1.3,2.4-3.5,5.7-5,5.4c-1.4-0.3-0.8-3.9,0.7-7.8
		c1.2-3.1,4.2-8.4,7.2-12.8c2.8-4.1,5.3-4.8,5.6-3C51,209.9,43.9,225.4,42.4,228.2"/>
	<path class="st1" d="M34.9,245.3c-13.1-2.3-20.8,4.3-25.4,2.5c-3.8-1.5-4.7-9.2-3.3-22.4c0.7-7,3.1-16.1,5.4-20.3
		c1.8-3.4,3.5-5.7,4.7-5.3c1,0.3,0.9,1.3,0.5,2.1c-2.1,0.7-3.1,6-1.8,6.3c1.1,0.3,2.4-2.6,3.1-6c0.3-1.7,0-4.3-1.2-5
		c-1.5-0.8-4.8,1.9-7.1,6.5c-3,6-5.3,14.5-6.2,21.1c-1.5,11.6-0.1,23,4.8,25.3c2.6,1.2,16.9-7,24.8,6.6c3.5-8.1,17.5-1.8,21.8,1.7
		C54.9,257.8,45.4,247.2,34.9,245.3"/>
	<path class="st1" d="M122.5,236.1c-1.6,5.7-3.4,8.3-3.8,8.3c-0.2,0-0.4-0.6-0.2-1.5c1.3-5.4,3.6-15.8,4.2-19.6l-2.2,0.2
		c-0.1,0.3-0.2,1.2-0.4,1.4c-2.6-7-7.5,5.9-9,10.3c-1.3,3.9-3.4,12.1-5.1,11.6c-0.7-0.2-0.1-5.8,1.2-13.1c4.2-4.9,7.6-13.1,8.9-17.9
		c0.4-1.4,0.7-2.9,1-4.3c-0.4,0.2-0.8,0.4-1.2,0.6c-0.2,1.2-0.5,2.4-0.8,3.5c-1,3.7-3.9,10.6-7.3,15.4c2.6-14.2,7.2-32.8,9-32
		c0.5,0.2,0.5,2.4,0.3,5.2c0.3-0.2,0.7-0.5,1.1-0.9c0.1-4-0.2-6.6-1.6-6.8c-2.8-0.3-7.9,14.7-11,29.5c-0.7,3.3-1.4,6.4-2,9.3
		c-0.6,0.4-1.2,0.6-1.8,0.8c1-4.1,1.9-10.9-0.9-12.1c-4.2-1.8-9.1,6.7-10.8,10.7c-5.5,12.8-4.8,19.5-1.5,20.2
		c6.3,1.3,11.1-11.4,12.7-17.1c0.6-0.1,1.3-0.3,1.9-0.6c-1.5,8.1-2.1,14.3,0.7,15.3c2.1,0.7,4.2-4.4,5.2-7.1c-0.2,4,0.7,5.2,1.6,5.6
		c1.4,0.7,3.7-3.2,4.4-5.2c-0.1,1.6,0.1,3.9,1,4.3c2.4,1,6.2-9,7.4-13.9L122.5,236.1z M93.1,248.1c-2-0.4-2.1-6.6,2.7-15.4
		c0.6,1.8,2.2,4.5,4.2,4.7C98.8,242.4,95.2,248.6,93.1,248.1 M100.5,235.9c-2.2-0.1-3.1-3.2-3.3-4.4c-0.5-3.2,2.4-6.1,3.8-5.1
		C102.5,227.5,101.3,232.9,100.5,235.9 M115.8,240.7c-0.7,1.8-1.6,4.4-2.5,4.2c-0.6-0.2-0.3-2.9,0.2-6c0.4-2.5,1.9-6.9,3.5-10.3
		c1.6-3.5,2.4-3.5,2.7-2.1C119.7,226.5,116.9,237.8,115.8,240.7"/>
	<path class="st1" d="M83.5,222.8c-5.1,0.8-10.2,8-11.1,20.8c2-2.8,3.9-5.2,6.8-6.9c0-3.9,3.3-11.5,6.3-10.6
		c2.7,0.9,0.4,10-2.1,14.8c-2.2,4.3-6.8,11.2-11.2,10.3c-3-0.7-4.6-4.6-4.5-7.8c0.5-15.2,11-30.8,14.5-35.7
		c3.4-4.8,8.2-8.9,11.4-9.5c1.1-0.2,1.8,0.2,2.4,0.8c-7.7,3.9-11.2,17.8-6.5,19.4c2.8,1,5.9-2.8,7.6-7.8c1.1-3.1,1.6-7,0.8-10.1
		c0.3-0.1,0.6-0.1,0.9-0.1c3.3-0.2,6.2,4.9,9.3,8.2c0.6-1.8,1.2-3.5,1.8-5.1c-3.2-2.5-7.5-6.1-11.4-5.4c-0.5,0.1-0.9,0.2-1.3,0.4
		c-1-1.8-2.7-3.1-5.4-3.2c-2.8-0.1-8.7,2.3-13.5,7.4c-11.2,11.9-16,23.9-18.4,33.4c-2,8.2-0.2,16.8,5.3,19.6c5.9,3,12-2.4,15.8-7.5
		c1.6-2.2,2.8-4.6,3.8-6.6c1-1.9,2.4-5.9,3-9.6C88.7,226.8,87.5,222.2,83.5,222.8 M96.8,200.9c0.6,2.7,0,6.7-0.9,8.9
		c-1.4,3.6-3.3,7.2-5.6,6.9C86.6,216.2,90.7,203.6,96.8,200.9"/>
	<path class="st1" d="M113.4,211.3c7,0.4,8.1-9.9,8.6-14c-1.5,5.3-3.8,8.5-7.1,8.5C114.4,207.4,113.9,209.3,113.4,211.3"/>
	<path class="st1" d="M123.7,248c-0.9,0.3-1.7-0.5-1.7-2.3c0-1.9,0.8-3.1,1.7-3.3c0.9-0.3,1.6,0.5,1.6,2.3
		C125.3,246.5,124.6,247.7,123.7,248 M123.7,242.9c-0.7,0.2-1.2,1.3-1.2,2.6c0,1.4,0.6,2.1,1.2,1.9v0c0.7-0.2,1.2-1.3,1.2-2.6
		C124.9,243.4,124.3,242.7,123.7,242.9 M123.4,246.8l-0.4,0.1l0-3.2l0.7-0.2c0.5-0.1,0.8,0,0.8,0.7c0,0.6-0.2,0.9-0.4,1l0.5,1.2
		l-0.5,0.1l-0.4-1.2l-0.2,0L123.4,246.8z M123.7,244.8c0.2-0.1,0.3-0.2,0.3-0.5c0-0.3-0.2-0.3-0.4-0.2l-0.3,0.1v0.8L123.7,244.8z"/>
</g>
</svg>
